{"asset":{"generator":"glTF-Transform v4.0.8","version":"2.0"},"accessors":[{"type":"SCALAR","componentType":5123,"count":6,"bufferView":0,"byteOffset":0},{"type":"SCALAR","componentType":5123,"count":6,"bufferView":0,"byteOffset":12},{"type":"SCALAR","componentType":5123,"count":6,"bufferView":0,"byteOffset":24},{"type":"SCALAR","componentType":5123,"count":6,"bufferView":0,"byteOffset":36},{"type":"SCALAR","componentType":5123,"count":6,"bufferView":0,"byteOffset":48},{"type":"SCALAR","componentType":5123,"count":6,"bufferView":0,"byteOffset":60},{"type":"SCALAR","componentType":5123,"count":6,"bufferView":0,"byteOffset":72},{"type":"SCALAR","componentType":5123,"count":6,"bufferView":0,"byteOffset":84},{"type":"SCALAR","componentType":5123,"count":6,"bufferView":0,"byteOffset":96},{"type":"SCALAR","componentType":5123,"count":6,"bufferView":0,"byteOffset":108},{"type":"SCALAR","componentType":5123,"count":6,"bufferView":0,"byteOffset":120},{"type":"SCALAR","componentType":5123,"count":6,"bufferView":0,"byteOffset":132},{"type":"VEC3","componentType":5126,"count":4,"max":[0.5,0.5,0],"min":[-0.5,-0.5,0],"bufferView":1,"byteOffset":0},{"type":"VEC3","componentType":5126,"count":4,"bufferView":1,"byteOffset":12},{"type":"VEC2","componentType":5126,"count":4,"bufferView":1,"byteOffset":24},{"type":"VEC3","componentType":5126,"count":4,"max":[0.5,0.5,0],"min":[-0.5,-0.5,0],"bufferView":2,"byteOffset":0},{"type":"VEC3","componentType":5126,"count":4,"bufferView":2,"byteOffset":12},{"type":"VEC2","componentType":5126,"count":4,"bufferView":2,"byteOffset":24},{"type":"VEC3","componentType":5126,"count":4,"max":[0.5,0.5,0],"min":[-0.5,-0.5,0],"bufferView":3,"byteOffset":0},{"type":"VEC3","componentType":5126,"count":4,"bufferView":3,"byteOffset":12},{"type":"VEC2","componentType":5126,"count":4,"bufferView":3,"byteOffset":24},{"type":"VEC3","componentType":5126,"count":4,"max":[0.5,0.5,0],"min":[-0.5,-0.5,0],"bufferView":4,"byteOffset":0},{"type":"VEC3","componentType":5126,"count":4,"bufferView":4,"byteOffset":12},{"type":"VEC2","componentType":5126,"count":4,"bufferView":4,"byteOffset":24},{"type":"VEC3","componentType":5126,"count":4,"max":[0.5,0.5,0],"min":[-0.5,-0.5,0],"bufferView":5,"byteOffset":0},{"type":"VEC3","componentType":5126,"count":4,"bufferView":5,"byteOffset":12},{"type":"VEC2","componentType":5126,"count":4,"bufferView":5,"byteOffset":24},{"type":"VEC3","componentType":5126,"count":4,"max":[0.5,0.5,0],"min":[-0.5,-0.5,0],"bufferView":6,"byteOffset":0},{"type":"VEC3","componentType":5126,"count":4,"bufferView":6,"byteOffset":12},{"type":"VEC2","componentType":5126,"count":4,"bufferView":6,"byteOffset":24},{"type":"VEC3","componentType":5126,"count":4,"max":[0.5,0.5,0],"min":[-0.5,-0.5,0],"bufferView":7,"byteOffset":0},{"type":"VEC3","componentType":5126,"count":4,"bufferView":7,"byteOffset":12},{"type":"VEC2","componentType":5126,"count":4,"bufferView":7,"byteOffset":24},{"type":"VEC3","componentType":5126,"count":4,"max":[0.5,0.5,0],"min":[-0.5,-0.5,0],"bufferView":8,"byteOffset":0},{"type":"VEC3","componentType":5126,"count":4,"bufferView":8,"byteOffset":12},{"type":"VEC2","componentType":5126,"count":4,"bufferView":8,"byteOffset":24},{"type":"VEC3","componentType":5126,"count":4,"max":[0.5,0.5,0],"min":[-0.5,-0.5,0],"bufferView":9,"byteOffset":0},{"type":"VEC3","componentType":5126,"count":4,"bufferView":9,"byteOffset":12},{"type":"VEC2","componentType":5126,"count":4,"bufferView":9,"byteOffset":24},{"type":"VEC3","componentType":5126,"count":4,"max":[0.5,0.5,0],"min":[-0.5,-0.5,0],"bufferView":10,"byteOffset":0},{"type":"VEC3","componentType":5126,"count":4,"bufferView":10,"byteOffset":12},{"type":"VEC2","componentType":5126,"count":4,"bufferView":10,"byteOffset":24},{"type":"VEC3","componentType":5126,"count":4,"max":[0.5,0.5,0],"min":[-0.5,-0.5,0],"bufferView":11,"byteOffset":0},{"type":"VEC3","componentType":5126,"count":4,"bufferView":11,"byteOffset":12},{"type":"VEC2","componentType":5126,"count":4,"bufferView":11,"byteOffset":24},{"type":"VEC3","componentType":5126,"count":4,"max":[0.5,0.5,0],"min":[-0.5,-0.5,0],"bufferView":12,"byteOffset":0},{"type":"VEC3","componentType":5126,"count":4,"bufferView":12,"byteOffset":12},{"type":"VEC2","componentType":5126,"count":4,"bufferView":12,"byteOffset":24}],"bufferViews":[{"buffer":0,"byteOffset":0,"byteLength":144,"target":34963},{"buffer":0,"byteOffset":144,"byteLength":128,"byteStride":32,"target":34962},{"buffer":0,"byteOffset":272,"byteLength":128,"byteStride":32,"target":34962},{"buffer":0,"byteOffset":400,"byteLength":128,"byteStride":32,"target":34962},{"buffer":0,"byteOffset":528,"byteLength":128,"byteStride":32,"target":34962},{"buffer":0,"byteOffset":656,"byteLength":128,"byteStride":32,"target":34962},{"buffer":0,"byteOffset":784,"byteLength":128,"byteStride":32,"target":34962},{"buffer":0,"byteOffset":912,"byteLength":128,"byteStride":32,"target":34962},{"buffer":0,"byteOffset":1040,"byteLength":128,"byteStride":32,"target":34962},{"buffer":0,"byteOffset":1168,"byteLength":128,"byteStride":32,"target":34962},{"buffer":0,"byteOffset":1296,"byteLength":128,"byteStride":32,"target":34962},{"buffer":0,"byteOffset":1424,"byteLength":128,"byteStride":32,"target":34962},{"buffer":0,"byteOffset":1552,"byteLength":128,"byteStride":32,"target":34962}],"samplers":[{"magFilter":9729,"minFilter":9987,"wrapS":10497,"wrapT":10497}],"textures":[{"source":0,"sampler":0},{"source":2,"sampler":0},{"source":4,"sampler":0},{"source":6,"sampler":0},{"source":8,"sampler":0},{"source":10,"sampler":0},{"source":12,"sampler":0},{"source":14,"sampler":0},{"source":16,"sampler":0},{"source":18,"sampler":0},{"source":20,"sampler":0},{"source":22,"sampler":0}],"images":[{"name":"39Ef2AvFsIlv9JKY1N68jSDx-qV6THEvi-4Ik4QA874.avif","mimeType":"image/avif","uri":"39Ef2AvFsIlv9JKY1N68jSDx-qV6THEvi-4Ik4QA874.avif"},{"name":"39Ef2AvFsIlv9JKY1N68jSDx-qV6THEvi-4Ik4QA874.avif","mimeType":"image/avif","uri":"39Ef2AvFsIlv9JKY1N68jSDx-qV6THEvi-4Ik4QA874.avif"},{"name":"39Ef2AvFsIlv9JKY1N68jSDx-qV6THEvi-4Ik4QA874.avif","mimeType":"image/avif","uri":"39Ef2AvFsIlv9JKY1N68jSDx-qV6THEvi-4Ik4QA874.avif"},{"name":"39Ef2AvFsIlv9JKY1N68jSDx-qV6THEvi-4Ik4QA874.avif","mimeType":"image/avif","uri":"39Ef2AvFsIlv9JKY1N68jSDx-qV6THEvi-4Ik4QA874.avif"},{"name":"39Ef2AvFsIlv9JKY1N68jSDx-qV6THEvi-4Ik4QA874.avif","mimeType":"image/avif","uri":"39Ef2AvFsIlv9JKY1N68jSDx-qV6THEvi-4Ik4QA874.avif"},{"name":"39Ef2AvFsIlv9JKY1N68jSDx-qV6THEvi-4Ik4QA874.avif","mimeType":"image/avif","uri":"39Ef2AvFsIlv9JKY1N68jSDx-qV6THEvi-4Ik4QA874.avif"},{"name":"39Ef2AvFsIlv9JKY1N68jSDx-qV6THEvi-4Ik4QA874.avif","mimeType":"image/avif","uri":"39Ef2AvFsIlv9JKY1N68jSDx-qV6THEvi-4Ik4QA874.avif"},{"name":"39Ef2AvFsIlv9JKY1N68jSDx-qV6THEvi-4Ik4QA874.avif","mimeType":"image/avif","uri":"39Ef2AvFsIlv9JKY1N68jSDx-qV6THEvi-4Ik4QA874.avif"},{"name":"39Ef2AvFsIlv9JKY1N68jSDx-qV6THEvi-4Ik4QA874.avif","mimeType":"image/avif","uri":"39Ef2AvFsIlv9JKY1N68jSDx-qV6THEvi-4Ik4QA874.avif"},{"name":"39Ef2AvFsIlv9JKY1N68jSDx-qV6THEvi-4Ik4QA874.avif","mimeType":"image/avif","uri":"39Ef2AvFsIlv9JKY1N68jSDx-qV6THEvi-4Ik4QA874.avif"},{"name":"39Ef2AvFsIlv9JKY1N68jSDx-qV6THEvi-4Ik4QA874.avif","mimeType":"image/avif","uri":"39Ef2AvFsIlv9JKY1N68jSDx-qV6THEvi-4Ik4QA874.avif"},{"name":"39Ef2AvFsIlv9JKY1N68jSDx-qV6THEvi-4Ik4QA874.avif","mimeType":"image/avif","uri":"39Ef2AvFsIlv9JKY1N68jSDx-qV6THEvi-4Ik4QA874.avif"},{"name":"39Ef2AvFsIlv9JKY1N68jSDx-qV6THEvi-4Ik4QA874.avif","mimeType":"image/avif","uri":"39Ef2AvFsIlv9JKY1N68jSDx-qV6THEvi-4Ik4QA874.avif"},{"name":"39Ef2AvFsIlv9JKY1N68jSDx-qV6THEvi-4Ik4QA874.avif","mimeType":"image/avif","uri":"39Ef2AvFsIlv9JKY1N68jSDx-qV6THEvi-4Ik4QA874.avif"},{"name":"39Ef2AvFsIlv9JKY1N68jSDx-qV6THEvi-4Ik4QA874.avif","mimeType":"image/avif","uri":"39Ef2AvFsIlv9JKY1N68jSDx-qV6THEvi-4Ik4QA874.avif"},{"name":"39Ef2AvFsIlv9JKY1N68jSDx-qV6THEvi-4Ik4QA874.avif","mimeType":"image/avif","uri":"39Ef2AvFsIlv9JKY1N68jSDx-qV6THEvi-4Ik4QA874.avif"},{"name":"39Ef2AvFsIlv9JKY1N68jSDx-qV6THEvi-4Ik4QA874.avif","mimeType":"image/avif","uri":"39Ef2AvFsIlv9JKY1N68jSDx-qV6THEvi-4Ik4QA874.avif"},{"name":"39Ef2AvFsIlv9JKY1N68jSDx-qV6THEvi-4Ik4QA874.avif","mimeType":"image/avif","uri":"39Ef2AvFsIlv9JKY1N68jSDx-qV6THEvi-4Ik4QA874.avif"},{"name":"39Ef2AvFsIlv9JKY1N68jSDx-qV6THEvi-4Ik4QA874.avif","mimeType":"image/avif","uri":"39Ef2AvFsIlv9JKY1N68jSDx-qV6THEvi-4Ik4QA874.avif"},{"name":"39Ef2AvFsIlv9JKY1N68jSDx-qV6THEvi-4Ik4QA874.avif","mimeType":"image/avif","uri":"39Ef2AvFsIlv9JKY1N68jSDx-qV6THEvi-4Ik4QA874.avif"},{"name":"39Ef2AvFsIlv9JKY1N68jSDx-qV6THEvi-4Ik4QA874.avif","mimeType":"image/avif","uri":"39Ef2AvFsIlv9JKY1N68jSDx-qV6THEvi-4Ik4QA874.avif"},{"name":"39Ef2AvFsIlv9JKY1N68jSDx-qV6THEvi-4Ik4QA874.avif","mimeType":"image/avif","uri":"39Ef2AvFsIlv9JKY1N68jSDx-qV6THEvi-4Ik4QA874.avif"},{"name":"39Ef2AvFsIlv9JKY1N68jSDx-qV6THEvi-4Ik4QA874.avif","mimeType":"image/avif","uri":"39Ef2AvFsIlv9JKY1N68jSDx-qV6THEvi-4Ik4QA874.avif"},{"name":"39Ef2AvFsIlv9JKY1N68jSDx-qV6THEvi-4Ik4QA874.avif","mimeType":"image/avif","uri":"39Ef2AvFsIlv9JKY1N68jSDx-qV6THEvi-4Ik4QA874.avif"}],"buffers":[{"uri":"o77T3p2ck7scR65XfNIORHol5uszLVDikSM02mm-pSI.bin","byteLength":1680}],"materials":[{"name":"vOgqzNSJWEQ5aNkWemBk6gGn_M-VtuAerGJC7Uy0vqA","extras":{"uuid":"ACFAFCF5-4C4C-FE4A-3923-50AA2D8ABCB4"},"alphaMode":"BLEND","pbrMetallicRoughness":{"metallicFactor":0,"baseColorTexture":{"index":0}},"emissiveFactor":[0.5,0.5,0.5],"extensions":{"KHR_materials_emissive_strength":{"emissiveStrength":6.5625}}},{"name":"jVg6g83ev0Dj_TrXRqWoQwnwzmJNpZSSFyjlWeqbV_Y","extras":{"uuid":"685941DB-DE43-34AF-E242-9AA9FA614C6C"},"alphaMode":"BLEND","pbrMetallicRoughness":{"metallicFactor":0,"baseColorTexture":{"index":1}},"emissiveFactor":[0.5,0.5,0.5],"extensions":{"KHR_materials_emissive_strength":{"emissiveStrength":5.625}}},{"name":"aOlTugnAJ6giZoug5CmXxf3Z4Onmq_MmXhgoGNd_ooc","extras":{"uuid":"00387AE7-F941-5C8C-BE1D-69ACF26DC9BE"},"alphaMode":"BLEND","pbrMetallicRoughness":{"metallicFactor":0,"baseColorTexture":{"index":2}},"emissiveFactor":[1,1,1],"extensions":{"KHR_materials_emissive_strength":{"emissiveStrength":5}}},{"name":"KjlnRPuEvmIhFmugDjyP0VI_pnfdCE-L37bT9SKr9Jw","extras":{"uuid":"11D51C30-0649-9C0E-2813-BCA2D120FE2B"},"alphaMode":"BLEND","pbrMetallicRoughness":{"metallicFactor":0,"baseColorTexture":{"index":3}},"emissiveFactor":[1,1,1],"extensions":{"KHR_materials_emissive_strength":{"emissiveStrength":12.5}}},{"name":"ObTPI2A6RWHVOMdQP0MEJcV-XgRRXvnvBSlmentEYp8","extras":{"uuid":"62DCA782-5244-3D40-1B4C-F9A424E33671"},"alphaMode":"BLEND","pbrMetallicRoughness":{"metallicFactor":0,"baseColorTexture":{"index":4}},"emissiveFactor":[1,1,1],"extensions":{"KHR_materials_emissive_strength":{"emissiveStrength":12.5}}},{"name":"IxaaxGmB_Vx5iO0Ps2AQFC_4JA-tdc3kqFlx6ApAFt4","extras":{"uuid":"FFA83FC8-8F4B-FB59-6F2B-759777FBB157"},"alphaMode":"BLEND","pbrMetallicRoughness":{"metallicFactor":0,"baseColorTexture":{"index":5}},"emissiveFactor":[1,1,1],"extensions":{"KHR_materials_emissive_strength":{"emissiveStrength":1}}},{"name":"C4k38o-p9TP4gy810t8kGl77xzFtdTmsPnwqrBQgOf0","extras":{"uuid":"6194FBAE-7B4B-6274-C059-7E9DF89BF10F"},"alphaMode":"BLEND","pbrMetallicRoughness":{"metallicFactor":0,"baseColorTexture":{"index":6}}},{"name":"GpIjD-_mrwckxP91xemrmhm8QVdabHh6jM_hG_xKWJU","extras":{"uuid":"BDAFE8E5-774F-62C5-776D-A6BA37175CC5"},"alphaMode":"BLEND","pbrMetallicRoughness":{"metallicFactor":0,"baseColorTexture":{"index":7}},"emissiveFactor":[1,1,1],"extensions":{"KHR_materials_emissive_strength":{"emissiveStrength":30}}},{"name":"meLYIpt994mvl813C8zLlups0igRr0Mddqn978o4tpc","extras":{"uuid":"F35295C7-614E-1028-7D17-13B89FFD176B"},"alphaMode":"BLEND","pbrMetallicRoughness":{"metallicFactor":0,"baseColorTexture":{"index":8}}},{"name":"lT0x6zbq8IyP3Uiaq_2akQ6gXsvXK51JzcsZr-3zfUY","extras":{"uuid":"C3FDB4EE-7F41-2673-0B0E-47804F5ECF0E"},"alphaMode":"BLEND","pbrMetallicRoughness":{"metallicFactor":0,"baseColorTexture":{"index":9}},"emissiveFactor":[1,1,1],"extensions":{"KHR_materials_emissive_strength":{"emissiveStrength":-25}}},{"name":"uByAuTdF1sdzlTTsQqhXqQtyNjjWiAtIq0lJ9uNeoJo","extras":{"uuid":"18F2F3AB-AF49-F649-6AA7-FE91EB2AAF81"},"alphaMode":"BLEND","pbrMetallicRoughness":{"metallicFactor":0,"baseColorTexture":{"index":10}}},{"name":"XSx4hSwzlXUlDRXpNPxj5we4JcUbvFfaa5h36UoTL94","extras":{"uuid":"A0EB5BB0-F548-97F1-384F-518DBE86E068"},"alphaMode":"BLEND","pbrMetallicRoughness":{"metallicFactor":0,"baseColorTexture":{"index":11}},"emissiveFactor":[1,1,1],"extensions":{"KHR_materials_emissive_strength":{"emissiveStrength":15}}}],"meshes":[{"name":"q9DZ8COXQA0n78MxKs5cJ7jHplX70-0Tb39Pfx0pR6o","extras":{"uuid":"2666B9ED-9741-9B0B-C50C-59970D17EA76"},"primitives":[{"attributes":{"POSITION":12,"NORMAL":13,"TEXCOORD_0":14},"mode":4,"material":0,"indices":0}]},{"name":"8hB6Y_mZ2b2zNpwHhGE_8ZLS5b5ArLcBLMpkV9S4sFw","extras":{"uuid":"C96CFECE-3B41-DC60-7A9D-FAB3CA91FF66"},"primitives":[{"attributes":{"POSITION":15,"NORMAL":16,"TEXCOORD_0":17},"mode":4,"material":1,"indices":1}]},{"name":"vHn0vv-vfB0wUcPRgCeoEZIb-dLE1cWjDuJYqErFI2Y","extras":{"uuid":"A13D2CB8-8844-119D-5F13-8DBEE8D66170"},"primitives":[{"attributes":{"POSITION":18,"NORMAL":19,"TEXCOORD_0":20},"mode":4,"material":2,"indices":2}]},{"name":"ql0aAPied03sSsErUaMklbRHr6mLESOAOWcTEWvPvEk","extras":{"uuid":"CEF3379E-0148-A54B-3461-9DB806D6F6AF"},"primitives":[{"attributes":{"POSITION":21,"NORMAL":22,"TEXCOORD_0":23},"mode":4,"material":3,"indices":3}]},{"name":"vagpVWRolikWeoTjHTLamrDM-0BsiTocBJSCiJfvX2c","extras":{"uuid":"2ED668B8-5A4C-C5C9-D3E5-6AB2126C969F"},"primitives":[{"attributes":{"POSITION":24,"NORMAL":25,"TEXCOORD_0":26},"mode":4,"material":4,"indices":4}]},{"name":"yZaUgggcWOVp8W4Gczi8AUe5I2aUvamfuE_Z0f-xCk4","extras":{"uuid":"82504D9E-DF4C-59E1-EB0B-619FC5AA5269"},"primitives":[{"attributes":{"POSITION":27,"NORMAL":28,"TEXCOORD_0":29},"mode":4,"material":5,"indices":5}]},{"name":"rKpB7BqgAcnjLc29KPl9suBhkqLzAitLZNHC2qEwdxQ","extras":{"uuid":"798E5756-594E-68E5-87D5-1AA4548DBCC2"},"primitives":[{"attributes":{"POSITION":30,"NORMAL":31,"TEXCOORD_0":32},"mode":4,"material":6,"indices":6}]},{"name":"Vg5t1w0TW5aYbtlDm4IxBwneGzldgmBKfcIYWM7A-c0","extras":{"uuid":"82AE6162-7349-48B9-A098-86A72DEE3065"},"primitives":[{"attributes":{"POSITION":33,"NORMAL":34,"TEXCOORD_0":35},"mode":4,"material":7,"indices":7}]},{"name":"XM4VfXr34--svAaf6q2Dgl8Uh-RvYPu0M8Lg_sfjOcM","extras":{"uuid":"B8FF1309-7F4F-64E0-E592-5A8B061B52D8"},"primitives":[{"attributes":{"POSITION":36,"NORMAL":37,"TEXCOORD_0":38},"mode":4,"material":8,"indices":8}]},{"name":"Luo6hBpZ_3qC4cKVbQvTOjiVDB6B7O-pnumY_Ph8JSw","extras":{"uuid":"5B34AC30-5C4D-01BA-75F5-6F80E1D0BA9A"},"primitives":[{"attributes":{"POSITION":39,"NORMAL":40,"TEXCOORD_0":41},"mode":4,"material":9,"indices":9}]},{"name":"zyMT_Ms4Siq1gsUsam08solWGiUJ9xRyHrcLtX0SxIo","extras":{"uuid":"6F4F80B0-9A4B-C28E-D74B-B7B4F8E15582"},"primitives":[{"attributes":{"POSITION":42,"NORMAL":43,"TEXCOORD_0":44},"mode":4,"material":10,"indices":10}]},{"name":"w-gbjwY8uoVHTzxYOv-5OWYsgvu8C0HhRi6TV_sE-8M","extras":{"uuid":"6258E4CF-B143-2E92-25F2-75AE4F6E27CE"},"primitives":[{"attributes":{"POSITION":45,"NORMAL":46,"TEXCOORD_0":47},"mode":4,"material":11,"indices":11}]}],"nodes":[{"name":"UCzH1CYBHwk_LVWN4sdlmPpNPzbhG1T4wiUytoVw9wU","extras":{"uuid":"0518BEEC-EB45-447D-2E25-37ADCEB22EBC"},"children":[1]},{"name":"_xaCWZAe8V-EGkrefgPm5Q9KQp_7OpBO-8NAjzYQDfA","extras":{"uuid":"3DDBC000-584E-CC18-CC17-06988CA4E4B5"},"rotation":[0,1,0,6.123233995736766e-17],"children":[2,7,12,16,20,24,28,32,36,40,44,48]},{"name":"g_EwCs2l1PV5VJS77EaQs6tjlkY2XpFZyChkm0bYwi4","extras":{"uuid":"2E5CB4F6-1046-4282-9E34-D78504C9439B"},"rotation":[0,-0.7071067811865475,0,0.7071067811865477],"children":[3]},{"name":"Ljpq2JROdTGzg3uHHSpjSpvvDa5-5XyAYXtdSimZMVA","extras":{"uuid":"CF4A7A30-2D4A-06CC-1987-DA828B074178"},"rotation":[0.11272831808736934,0.010358277297662618,-0.0909134330528082,0.9894037497822464],"children":[4]},{"name":"nDCWmmeCWJu_goM6SkIYMPpXXTzpUE2o0GddePXQ6x4","extras":{"uuid":"3C66264B-1543-98E7-5504-08A73976AEAA"},"translation":[0,0,15],"scale":[2,2,1],"children":[5]},{"name":"oUlC1rL9TVEKyTJWdBNh_SMuKQqEUk4iPftmut8pzyM","extras":{"uuid":"872FAB57-CB47-9696-7329-E994F918127C"},"scale":[10.38379506787743,10.38379506787743,10.38379506787743],"children":[6]},{"name":"xoXL7VGODsQjL5W0soVNPsbAo4gal3-U_HFkK8QQkSs","extras":{"uuid":"FA89BA49-9648-5943-14C2-BAAFA567E68F"},"mesh":0},{"name":"fR9TodaMvX71yDOm9r39c_UGH5iD0WEoNOIO8rck6Fk","extras":{"uuid":"A1AF880F-0D45-F1B2-B294-2A8BF3818181"},"rotation":[0,0.7071067811865475,0,0.7071067811865477],"children":[8]},{"name":"tQC0u9e_frCO8_94ZfoU94QJv6wrd0_pZPK7jzjr8eQ","extras":{"uuid":"340969E5-F14F-AA58-7691-0DB9ED1CBA42"},"rotation":[0.14349262199117932,0,0,0.9896513868196702],"children":[9]},{"name":"SUFEGbmaeu5SuuvNTLT_7Ul-6c0SR161cZJg8wk1QrY","extras":{"uuid":"53EDC94E-C24D-BF8D-A9AB-61BD1F3D91A2"},"translation":[0,0,25],"scale":[2,2,1],"children":[10]},{"name":"KQnReBQCEz3ooNYcashjQ42MwePLJCZQLjRgqeboUVg","extras":{"uuid":"A2A9683E-5D4D-4460-D51E-2491681FDC3C"},"scale":[10.38379506787743,10.38379506787743,10.38379506787743],"children":[11]},{"name":"8egkcT_D8BQvxEsplUVHLLBdq-5Ov9l_m4l81DLFh6g","extras":{"uuid":"0D6A6F4A-854D-9B80-3870-88B7CDC5587D"},"mesh":1},{"name":"1r3siDfobloAxIg7K81fKs8uj4jKLg7ahcE7_7CONNY","extras":{"uuid":"AE3772CF-1B49-8CB6-40C4-978A4E25BA23"},"rotation":[0,0.9238795325112867,0,-0.3826834323650897],"children":[13]},{"name":"oVzCB45HeLC42QQbk7KVukns3ecVPSMhNHfvgsYrCYI","extras":{"uuid":"2986AA99-B741-936E-846B-48821AD56044"},"rotation":[-0.15008446815753307,0,0,0.988673177757883],"scale":[4,2,1],"children":[14]},{"name":"sfbD5sVWbTI6yNlIonjbQLo0TzVH7T1hKt48c3lgT9s","extras":{"uuid":"712FD120-1F4A-C69A-E54E-43938D8EEC5C"},"translation":[0,0,20],"scale":[8,8,8],"children":[15]},{"name":"JVhxa8z_BNMezKmUs_4FCI_K-CfduN1vpkCek5LSBdc","extras":{"uuid":"C3F4D775-B247-FADB-DE7A-86B1CD75C520"},"mesh":2},{"name":"4B847Y_2Ug7vYgBLWWTB4wsPvGzCOIvvbsptwvEMqtw","extras":{"uuid":"57AC293E-AB43-D06E-C71A-17BBF7B58508"},"rotation":[0.2801664995932355,-0.5389855446957564,-0.7697511313200571,0.19617469496901108],"children":[17]},{"name":"FDIasP4N_pXekAY1CQbOj5G4v3kLk22ft6jjn2lOj8Y","extras":{"uuid":"5D8B4AA5-F648-FABE-9345-0D97464A1560"},"translation":[0,0,20],"children":[18]},{"name":"9SGYr76km7JzZISxaMJfvt0-pRIdP4e6YfjMC5zsdA0","extras":{"uuid":"EC58990A-924B-F948-E937-9BAB1B053E9C"},"scale":[10.38379506787743,10.38379506787743,10.38379506787743],"children":[19]},{"name":"0o0Ga44rcURXbLLyrYZBCg0DGy2-jxH9uCQzwUkAUvw","extras":{"uuid":"0D514366-4F4B-A982-F330-7892DA84CD40"},"mesh":3},{"name":"EsQK4B04zjtrdequ_FFfHTlJbsjKnEyofKCtddnuS1A","extras":{"uuid":"DD96EF8F-D246-FE4B-07B8-A09ACDDCC6F8"},"rotation":[0,0.8279755312033754,0,0.560764228288938],"children":[21]},{"name":"2vuILqrzXrFykjPt2co-AKdVV_IRQ_mkMgCJH4xjtKw","extras":{"uuid":"669BA49D-B14C-2E56-CB15-15A4CE4AC4F6"},"rotation":[-0.38422271976568356,0,0,0.9232404354315624],"children":[22]},{"name":"zin5env79Lzxzo0eqtmc43WvLXeMc4XVhFC0NiFwrtU","extras":{"uuid":"43AE4E16-094E-BD9F-6B11-93A1AE5D31C8"},"translation":[0,0,15.858910828179665],"scale":[17.80962135304125,17.80962135304125,17.80962135304125],"children":[23]},{"name":"3RUVHzYBy_g0dzxt46-Il_rxHEGCwig_NhhJq_22VGs","extras":{"uuid":"BBF6534E-FE4E-44BF-5BFA-DDA8949E74EE"},"mesh":4},{"name":"XuikRGCNq4i0g-Is0pCLCBPEn2YKQTANGvwcDb_GScI","extras":{"uuid":"0B8F7522-9B4D-5907-694F-8CAB62B275F7"},"rotation":[1,0,0,6.123233995736766e-17],"children":[25]},{"name":"cuxNz7WW0EPqScV3tcJjxPhT5IEwv4bySqrXl54mIMw","extras":{"uuid":"0E3AC9C9-8744-9008-ACC7-1E80E3982903"},"scale":[2,2,1],"children":[26]},{"name":"2jIE4Utpi3J6RCvBmgqNGFCWlt7f_lotfAxIaEil2mY","extras":{"uuid":"C5CB23A4-774E-684A-76C4-F08C098C69AB"},"translation":[-2.0739400219181956,0.3369745277493408,8.38131073563211],"scale":[10,5,5],"children":[27]},{"name":"bV-4QnPdLhjh6j1PAapk9bT4taHe9L3WWbIXGNCZuo8","extras":{"uuid":"2207880B-F241-4632-DB36-BF8901B5FE8B"},"mesh":5},{"name":"NY6gjzzNuOjWBxPrI1elx5NxkhBBWOgydJSuT5nkgRM","extras":{"uuid":"97D47834-5042-85F0-F1E9-979B82AFED67"},"rotation":[-4.329780281177467e-17,0.7071067811865476,-0.7071067811865475,4.329780281177466e-17],"children":[29]},{"name":"KTvYk8Ym_3j0obCvvX5NwnmnijOvjY1LreTefjPYRDE","extras":{"uuid":"6CFA993E-AB49-205D-EF6A-159C9BFF5C0E"},"translation":[0,0,25],"children":[30]},{"name":"n28Iryc5EDwYkV4B7Xhbg77c747wmAG9t_7ZOrTM-9k","extras":{"uuid":"C99828CC-8E4E-35FB-DDB4-A4A31151D9C7"},"scale":[10.38379506787743,10.38379506787743,10.38379506787743],"children":[31]},{"name":"gcLWb523F4X8UZHl5UMaUfuBr5TznoHR4H1jzqHjhhE","extras":{"uuid":"61FB3620-AA49-01B3-31B0-A69CE78292DE"},"mesh":6},{"name":"iFf1nYpKRSiBQzuAka-XbrpsyKJ7M5L4VcGguWsgalo","extras":{"uuid":"E4AE5C55-6743-B0E9-9984-AEB48B3870FE"},"rotation":[0,0.980733120926279,0,0.19535236245871368],"children":[33]},{"name":"WsyM_WW3xu8BMQASTjdrieTNimvH_E4hEQ4pzCWMo44","extras":{"uuid":"9C72B46A-4941-2150-1CB6-4299D816594A"},"rotation":[-0.1830922829799683,0,0,0.9830957307979642],"children":[34]},{"name":"jK5hwQasN0EPyCoKJrOSjRMHtSCrcdxgFEs2BytE_JU","extras":{"uuid":"5C118B14-3546-8D0D-858F-2B867DFC1423"},"translation":[0,0,17.67530865166492],"scale":[25,25,25],"children":[35]},{"name":"1vO0Ljsf7sasoEUDc58RgsOMLFBvdAsRqJhmtRrkgeE","extras":{"uuid":"5B018D08-F844-1B74-C407-638AC4BA224B"},"mesh":7},{"name":"H98dIhp0j5ntaAj6e2nq0Vr8He17GDvH6curomDbqLo","extras":{"uuid":"1BE4BEBF-B848-542F-3215-B2B49ED0208A"},"rotation":[0,0.7071067811865475,0,0.7071067811865477],"children":[37]},{"name":"Bie2nrJz-GWD321gkt5JF_B2oOt7rpC5z9NhObF0y_w","extras":{"uuid":"F64AEA08-C543-2367-5543-7AAB74925A98"},"translation":[0,0,24],"scale":[4,0.6,1],"children":[38]},{"name":"Sv13OyrEivtmftwa0jslsZHdsZbByRMQGx02yg9dBVk","extras":{"uuid":"7547F828-964E-328A-18AB-83A82A9B7CDE"},"translation":[0,0,-2.804136193122081],"scale":[10.38379506787743,10.38379506787743,10.38379506787743],"children":[39]},{"name":"pVBYRBVu8yStgHr-1oVKTe2gYsPnOjD9abtGPMmjkn0","extras":{"uuid":"70E25A11-3D4D-418B-99B2-1B9C5FB4941D"},"mesh":8},{"name":"sn-Zix-4kIuCeQ9u1TxAEJ5zrFISEf7RfONN485AFw0","extras":{"uuid":"FD279013-0E4D-851D-376C-979DAFCAC319"},"rotation":[-0.766044443118978,0,0,0.6427876096865394],"children":[41]},{"name":"xegjKjZqokog7OYWqySWJWW9WF2UIijWeEUd5Y66JUk","extras":{"uuid":"CC7196EF-0042-ED3E-64A9-BE9936AC1F11"},"translation":[0,0,15],"scale":[1.5,0.65,1],"children":[42]},{"name":"0CjIeMW3X1_Fn6BNUGMfKSosscjTznF5jUJN7HmeI8U","extras":{"uuid":"339F08A7-6944-2F70-9861-DFB07D5D9177"},"scale":[10,10,10],"children":[43]},{"name":"1H5X_9K-8Y7e--qtuv19omXRz6SjrKN_2Dk93XJGnIg","extras":{"uuid":"7C5ADC30-5A40-491E-885B-EFAB9E78020E"},"mesh":9},{"name":"POFB4FHPnWAnOqhBQFnv1U7anVRW0ZmS2Tid1tTK__g","extras":{"uuid":"FD0F5D74-904B-BEFB-7C7F-76B8D63AEA2C"},"rotation":[0.6427876096863909,-7.43120540558049e-7,-0.0000013594837121150591,0.7660444431175358],"children":[45]},{"name":"1bMrp21Tbj7SXrzvUqYGJY3BruktA-03OR_wLLCQwZc","extras":{"uuid":"E06C1542-B648-7DA7-8382-7C844F3DB5DD"},"translation":[0,0,15],"scale":[2,2,1],"children":[46]},{"name":"63ZAxQosmRcw1uImraFaOJ6_HTmloYfWiDwDf24Gv0w","extras":{"uuid":"E35B443D-0644-4C30-0A41-4E8DA90325B7"},"scale":[10,10,10],"children":[47]},{"name":"wXqrTFwlOGhntIzak29RmRhz_bIcr5BLeVOM-Nf_i7E","extras":{"uuid":"86A22F4F-3A41-A8E9-B4CE-D788F0094852"},"mesh":10},{"name":"Aa26OaJZCfPqtqahTJwiAUyZc4dTqazRfduWdIe69lQ","extras":{"uuid":"6F0AA032-E541-730F-7AE4-8F9ED73F6A98"},"children":[49]},{"name":"CD5z5oNHzEVNH3oQpSwuOQxmBPzL8Mr9R1XnnfxDWh4","extras":{"uuid":"2DE7E946-1A47-AB5D-6017-E9A9620D2FBD"},"translation":[0,0,15],"scale":[4,1,1],"children":[50]},{"name":"PmBDL6Ls9HQpRPVcaatGkHKm2D0V6WxeBcVvpCkbmpk","extras":{"uuid":"C55F8C20-4A42-48A5-6B98-01B18870FC2F"},"scale":[10.38379506787743,10.38379506787743,10.38379506787743],"children":[51]},{"name":"QaJZPYlxfCnRSNFJz5sJugKfFfKBQLox4KxJLwTorLA","extras":{"uuid":"D0524DCF-1A4B-2CFB-C810-F3B74D378E98"},"mesh":11}],"scenes":[{"name":"Scene","nodes":[0]}],"scene":0,"extensionsUsed":["KHR_materials_emissive_strength"]}